<?xml version="1.0" encoding="utf-8"?>
<!-- Generator: Adobe Illustrator 25.2.1, SVG Export Plug-In . SVG Version: 6.00 Build 0)  -->
<svg version="1.1" id="Layer_1" xmlns="http://www.w3.org/2000/svg" xmlns:xlink="http://www.w3.org/1999/xlink" x="0px" y="0px"
	 viewBox="0 0 20 20" style="enable-background:new 0 0 20 20;" xml:space="preserve">
<style type="text/css">
	.st0{fill:#DFE0FF;}
	.st1{fill:none;stroke:#DFE0FF;stroke-miterlimit:10;}
	.st2{fill:#DFE0FF;stroke:#DFE0FF;stroke-miterlimit:10;}
</style>
<g>
	<g>
		<path class="st0" d="M15.3,6.4C15.3,6.4,15.4,6.5,15.3,6.4l0.1,11.7c0,0,0,0.1-0.1,0.1H4.7c0,0-0.1,0-0.1-0.1V6.5
			c0,0,0-0.1,0.1-0.1H15.3 M15.3,5.4H4.7c-0.6,0-1.1,0.5-1.1,1.1v11.7c0,0.6,0.5,1.1,1.1,1.1h10.6c0.6,0,1.1-0.5,1.1-1.1V6.5
			C16.4,5.9,15.9,5.4,15.3,5.4L15.3,5.4z"/>
	</g>
	<g>
		<line class="st1" x1="7.2" y1="8.1" x2="7.2" y2="16.5"/>
	</g>
	<g>
		<line class="st1" x1="10" y1="8.1" x2="10" y2="16.5"/>
	</g>
	<g>
		<line class="st1" x1="12.9" y1="8.1" x2="12.9" y2="16.5"/>
	</g>
	<line class="st1" x1="2.3" y1="6" x2="17.7" y2="6"/>
	<path class="st2" d="M16.4,6H3.7V5c0-0.4,0.4-0.8,0.8-0.8h11.1c0.4,0,0.8,0.4,0.8,0.8V6z"/>
	<path class="st1" d="M12.9,4.9H7.2V2.3c0-0.9,0.7-1.6,1.6-1.6h2.6c0.9,0,1.6,0.7,1.6,1.6V4.9z"/>
</g>
</svg>
