<?xml version="1.0" encoding="utf-8"?>
<!-- Generator: Adobe Illustrator 25.2.1, SVG Export Plug-In . SVG Version: 6.00 Build 0)  -->
<svg version="1.1" id="Layer_1" xmlns="http://www.w3.org/2000/svg" xmlns:xlink="http://www.w3.org/1999/xlink" x="0px" y="0px"
	 viewBox="0 0 20 20" style="enable-background:new 0 0 20 20;" xml:space="preserve">
<style type="text/css">
	.st0{fill:#DFE0FF;}
</style>
<g>
	<path class="st0" d="M17.4,12.2c-0.2,0-0.4,0.2-0.4,0.4v3.9c0,0.7-0.6,1.3-1.3,1.3H3.4c-0.7,0-1.3-0.6-1.3-1.3V5.2
		c0-0.7,0.6-1.3,1.3-1.3h3.9c0.2,0,0.4-0.2,0.4-0.4C7.7,3.2,7.5,3,7.3,3H3.4C2.2,3,1.3,4,1.3,5.2v11.3c0,1.2,1,2.2,2.2,2.2h12.2
		c1.2,0,2.2-1,2.2-2.2v-3.9C17.8,12.4,17.6,12.2,17.4,12.2z"/>
	<path class="st0" d="M17.6,1.9c-0.8-0.8-2-0.8-2.8,0L7.1,9.6C7.1,9.7,7,9.8,7,9.8l-1,3.7c0,0.2,0,0.3,0.1,0.4
		c0.1,0.1,0.3,0.2,0.4,0.1l3.7-1c0.1,0,0.1-0.1,0.2-0.1l7.8-7.8c0.8-0.8,0.8-2,0-2.8L17.6,1.9z M8.1,9.9l6.3-6.3l2,2L10.1,12
		L8.1,9.9z M7.7,10.7l1.6,1.6L7,13L7.7,10.7z M17.5,4.5L17.1,5l-2-2l0.5-0.5c0.4-0.4,1.1-0.4,1.5,0L17.5,3C18,3.4,18,4.1,17.5,4.5z"
		/>
</g>
</svg>
